<?xml version="1.0" encoding="utf-8"?>
<!-- Uploaded to: SVG Repo, www.svgrepo.com, Generator: SVG Repo Mixer Tools -->
<svg fill="#000000" width="800px" height="800px" viewBox="0 0 32 32" version="1.1" xmlns="http://www.w3.org/2000/svg">
<title>xcode</title>
<path d="M6.759 23.232c0-0.081 0.968-1.774 0.968-1.774 0.207-0.073 0.446-0.115 0.694-0.115 0.657 0 1.246 0.294 1.642 0.757l0.002 0.003c-0.467 0.847-0.921 1.559-1.414 2.24l0.043-0.063c-0.217 0.219-0.518 0.355-0.851 0.355-0.099 0-0.194-0.012-0.286-0.034l0.008 0.002c-0.494-0.092-0.862-0.52-0.862-1.033 0-0.121 0.020-0.237 0.058-0.345l-0.002 0.007zM3.291 9.765v13.548c0.022 2.441 1.995 4.413 4.433 4.435h0.728c0-0.081 0.968-1.774 3.064-5.322 0.242-0.484 0.564-0.968 0.887-1.532h-5.887c-0.020 0.001-0.044 0.002-0.068 0.002-0.548 0-1.008-0.374-1.14-0.881l-0.002-0.008c-0.026-0.091-0.041-0.195-0.041-0.303 0-0.635 0.514-1.149 1.149-1.149 0.007 0 0.014 0 0.022 0l-0.001-0h2.984l3.79-6.613s-0.887-1.613-1.129-2.016c-0.111-0.177-0.177-0.392-0.177-0.623 0-0.323 0.129-0.615 0.339-0.829l-0 0c0.484-0.484 1.29-0.726 2.097 0.564l0.323 0.484 0.323-0.484c0.726-1.048 1.21-0.968 1.613-0.887 0.645 0.161 1.048 0.887 0.484 2.016l-5 8.387h1.694c0.564-0.968 1.129-1.935 1.694-2.984-0.068-0.258-0.107-0.554-0.107-0.859 0-0.152 0.010-0.302 0.029-0.449l-0.002 0.017c0.107-0.658 0.395-1.236 0.809-1.697l-0.003 0.003 0.484 0.806c0.984-1.606 1.982-3.512 2.856-5.484l0.127-0.322c0.159-0.418 0.252-0.902 0.252-1.407 0-0.301-0.033-0.595-0.095-0.878l0.005 0.027h-12.096c-0.004 0-0.008-0-0.013-0-2.443 0-4.423 1.98-4.423 4.423 0 0.005 0 0.009 0 0.014v-0.001zM26.516 9.684v13.628c0 0.003 0 0.007 0 0.010 0 2.889-2.342 5.231-5.231 5.231-0.004 0-0.007 0-0.011 0h-5.403s-0.484 1.29 1.048 1.29h4.838c0.004 0 0.009 0 0.013 0 3.288 0 5.954-2.666 5.954-5.954 0-0.005 0-0.009-0-0.014v0.001-11.854c0.081-1.129-0.887-1.855-1.209-2.339zM8.049 28.554h-0.403c-0.003 0-0.007 0-0.010 0-2.889 0-5.231-2.342-5.231-5.231 0-0.004 0-0.007 0-0.011v0.001-13.548c0-0.003 0-0.007 0-0.010 0-2.889 2.342-5.231 5.231-5.231 0.004 0 0.007 0 0.011 0h11.692c-0.528-0.361-1.181-0.577-1.884-0.577-0.103 0-0.205 0.005-0.306 0.014l0.013-0.001c-0.169 0.032-0.363 0.051-0.561 0.051-0.407 0-0.796-0.078-1.153-0.22l0.021 0.007c-0.484-0.403-0.403-0.645-1.129-0.645h-7.177c-0.004 0-0.009 0-0.014 0-3.288 0-5.954 2.666-5.954 5.954 0 0.005 0 0.009 0 0.014v-0.001 14.677c-0.001 0.040-0.002 0.087-0.002 0.135 0 3.112 2.47 5.647 5.556 5.752l0.010 0c0.806 0 1.048-0.645 1.29-1.129zM20.307 18.555h1.935c1.29 0 1.532 0.645 1.532 0.887 0.081 0.645-0.242 1.452-1.532 1.452h-1.21l0.968 1.613c0.564 0.968 0.323 1.452 0 1.774-0.228 0.189-0.524 0.303-0.847 0.303-0.569 0-1.055-0.357-1.247-0.859l-0.003-0.009-1.129-1.935c-0.806 1.774-1.613 3.709-2.581 5.967h5c2.441-0.022 4.413-1.995 4.435-4.433v-14.114c-0.081-0.161-0.242-0.081-0.323 0-1.887 2.697-3.566 5.777-4.887 9.040l-0.112 0.314zM24.823 7.668c0.307-0.166 0.671-0.264 1.059-0.264 0.11 0 0.218 0.008 0.324 0.023l-0.012-0.001c0.497 0.171 0.91 0.48 1.205 0.88l0.005 0.007c0.372 0.505 0.9 0.876 1.513 1.044l0.020 0.005c0.323 0.081 0.887-0.806 1.29-1.613 0.337-0.553 0.544-1.218 0.564-1.93l0-0.006c-0.396-0.354-0.888-0.61-1.432-0.722l-0.020-0.003c-0.227 0.060-0.487 0.095-0.756 0.095-0.103 0-0.205-0.005-0.305-0.015l0.013 0.001c-0.625-0.218-1.131-0.646-1.445-1.197l-0.007-0.013c-0.557-0.711-1.258-1.283-2.062-1.678l-0.035-0.015c-0.747-0.365-1.614-0.646-2.524-0.799l-0.056-0.008c-0.902-0.278-1.939-0.438-3.013-0.438-0.302 0-0.601 0.013-0.897 0.037l0.039-0.003c-0.825 0.054-1.595 0.198-2.33 0.422l0.072-0.019c-0.081 0-0.242 0.242-0.081 0.242s0.726 0.081 0.726 0.081-0.726 0.161-0.726 0.323 0.081 0.161 0.161 0.161 1.855-0.081 2.581 0c0.965 0.16 1.772 0.728 2.25 1.518l0.008 0.014c0.388 0.682 0.616 1.499 0.616 2.369 0 0.597-0.108 1.169-0.304 1.697l0.011-0.034c-1.21 2.661-10.806 19.031-11.29 20.16s-0.645 1.855 0.726 2.581 2.097 0.403 2.5-0.081c0.484-0.645 8.79-21.451 11.612-22.821z"></path>
</svg>